<svg width="540.0040000000001" height="160" xmlns="http://www.w3.org/2000/svg">
 <defs>
  <linearGradient y2="-2.60383" y1="1.00266" x2="0.49998" x1="0.49998" id="a">
   <stop stop-opacity="0.1" stop-color="#1a1a1a" offset="0"/>
   <stop stop-opacity="0.151" stop-color="#212121" offset="0.123"/>
   <stop stop-opacity="0.227" stop-color="#353535" offset="0.308"/>
   <stop stop-opacity="0.318" stop-color="#575757" offset="0.532"/>
   <stop stop-opacity="0.421" stop-color="#858585" offset="0.783"/>
   <stop stop-opacity="0.51" stop-color="#b3b3b3" offset="1"/>
  </linearGradient>
 </defs>
 <g>
  <title>Layer 1</title>
  <path id="svg_1" fill="#fff" d="m536.418,141.11a15.328,15.324 0 0 1 -15.345,15.325l-502.147,0a15.348,15.344 0 0 1 -15.364,-15.324l0,-122.206a15.368,15.364 0 0 1 15.364,-15.344l502.144,0a15.344,15.34 0 0 1 15.345,15.344l0.003,122.205z"/>
  <path id="svg_2" fill="#a6a6a6" d="m521.073,160l-502.147,0a18.93,18.925 0 0 1 -18.926,-18.89l0,-122.2a18.942,18.937 0 0 1 18.926,-18.91l502.144,0a18.95,18.945 0 0 1 18.926,18.91l0,122.2c0.008,10.42 -8.496,18.89 -18.922,18.89l-0.001,0z"/>
  <path id="svg_3" d="m536.418,141.11a15.328,15.324 0 0 1 -15.345,15.325l-502.147,0a15.348,15.344 0 0 1 -15.364,-15.324l0,-122.206a15.368,15.364 0 0 1 15.364,-15.344l502.144,0a15.344,15.34 0 0 1 15.345,15.344l0.003,122.205z"/>
  <path id="svg_4" fill="#fff" d="m120.577,79.158c-0.116,-12.896 10.562,-19.17 11.05,-19.462c-6.047,-8.814 -15.42,-10.018 -18.714,-10.114c-7.872,-0.829 -15.508,4.709 -19.519,4.709c-4.09,0 -10.265,-4.63 -16.92,-4.493c-8.565,0.132 -16.578,5.09 -20.972,12.787c-9.069,15.697 -2.305,38.763 6.383,51.45c4.347,6.218 9.425,13.152 16.073,12.908c6.504,-0.264 8.933,-4.141 16.781,-4.141c7.776,0 10.058,4.14 16.837,3.985c6.98,-0.108 11.374,-6.242 15.569,-12.512c5.022,-7.118 7.04,-14.135 7.12,-14.496c-0.16,-0.056 -13.552,-5.169 -13.688,-20.621zm-12.807,-37.923c3.498,-4.373 5.891,-10.323 5.227,-16.36c-5.063,0.224 -11.394,3.5 -15.04,7.778c-3.226,3.769 -6.107,9.947 -5.363,15.756c5.687,0.424 11.526,-2.868 15.176,-7.174z"/>
  <path id="svg_5" transform="scale(4.00216 4.0011)" fill="url(#a)" d="m130.198,0l-67.205,0l26.323,39.989l40.882,0a4.733,4.733 0 0 0 4.729,-4.724l0,-30.539a4.734,4.734 0 0 0 -4.729,-4.726z"/>
  <g id="svg_6" fill="#fff">
   <path id="svg_7" d="m214.776,126.05l-9.089,0l-4.979,-15.64l-17.305,0l-4.743,15.64l-8.848,0l17.149,-53.246l10.59,0l17.225,53.246zm-15.568,-22.201l-4.503,-13.904c-0.476,-1.42 -1.373,-4.766 -2.685,-10.031l-0.16,0c-0.529,2.265 -1.373,5.61 -2.53,10.03l-4.426,13.905l14.304,0zm59.584,2.532c0,6.53 -1.773,11.691 -5.323,15.48c-3.178,3.373 -7.128,5.058 -11.839,5.058c-5.086,0 -8.744,-1.813 -10.966,-5.446l0,20.146l-8.532,0l0,-41.343c0,-4.102 -0.108,-8.307 -0.316,-12.62l7.504,0l0.476,6.086l0.16,0c2.846,-4.585 7.164,-6.878 12.96,-6.878c4.53,0 8.312,1.788 11.337,5.37c3.022,3.588 4.539,8.302 4.539,14.147zm-8.693,0.312c0,-3.737 -0.84,-6.818 -2.53,-9.246c-1.844,-2.525 -4.322,-3.79 -7.427,-3.79c-2.106,0 -4.019,0.705 -5.727,2.093c-1.713,1.4 -2.834,3.23 -3.358,5.494a11.142,11.14 0 0 0 -0.397,2.597l0,6.405c0,2.79 0.857,5.146 2.57,7.074c1.713,1.92 3.938,2.885 6.675,2.885c3.214,0 5.716,-1.244 7.505,-3.713c1.792,-2.477 2.689,-5.742 2.689,-9.799zm52.865,-0.312c0,6.53 -1.773,11.691 -5.323,15.48c-3.182,3.373 -7.128,5.058 -11.843,5.058c-5.086,0 -8.744,-1.813 -10.966,-5.446l0,20.146l-8.532,0l0,-41.343c0,-4.102 -0.108,-8.307 -0.316,-12.62l7.504,0l0.476,6.086l0.16,0c2.841,-4.585 7.16,-6.878 12.959,-6.878c4.526,0 8.308,1.788 11.342,5.37c3.018,3.588 4.539,8.302 4.539,14.147zm-8.697,0.312c0,-3.737 -0.845,-6.818 -2.534,-9.246c-1.845,-2.525 -4.314,-3.79 -7.42,-3.79c-2.105,0 -4.018,0.705 -5.735,2.093c-1.713,1.4 -2.83,3.23 -3.353,5.494c-0.26,1.056 -0.4,1.916 -0.4,2.597l0,6.405c0,2.79 0.86,5.146 2.565,7.074c1.713,1.917 3.938,2.885 6.683,2.885c3.218,0 5.72,-1.244 7.504,-3.713c1.793,-2.477 2.69,-5.742 2.69,-9.799zm58.083,4.422c0,4.533 -1.585,8.218 -4.734,11.063c-3.466,3.104 -8.305,4.66 -14.508,4.66c-5.731,0 -10.326,-1.103 -13.792,-3.316l1.973,-7.11c3.742,2.217 7.853,3.32 12.327,3.32c3.218,0 5.72,-0.727 7.504,-2.172c1.79,-1.448 2.694,-3.385 2.694,-5.801c0,-2.165 -0.749,-3.977 -2.218,-5.454c-1.476,-1.472 -3.918,-2.845 -7.348,-4.105c-9.325,-3.477 -13.991,-8.562 -13.991,-15.252c0,-4.37 1.649,-7.946 4.939,-10.743c3.29,-2.793 7.652,-4.19 13.079,-4.19c4.846,0 8.884,0.845 12.09,2.53l-2.141,6.953c-3.018,-1.632 -6.424,-2.448 -10.234,-2.448c-3.01,0 -5.37,0.74 -7.06,2.212c-1.42,1.317 -2.14,2.921 -2.14,4.826c0,2.1 0.82,3.845 2.453,5.213c1.417,1.26 4.002,2.633 7.74,4.105c4.586,1.849 7.956,4.001 10.113,6.474c2.174,2.473 3.254,5.558 3.254,9.235zm28.283,-17.057l-9.405,0l0,18.641c0,4.741 1.657,7.106 4.979,7.106c1.525,0 2.79,-0.128 3.79,-0.396l0.236,6.478c-1.68,0.628 -3.894,0.944 -6.635,0.944c-3.37,0 -6.004,-1.028 -7.905,-3.085c-1.893,-2.057 -2.845,-5.501 -2.845,-10.35l0,-19.355l-5.603,0l0,-6.401l5.603,0l0,-7.03l8.38,-2.529l0,9.56l9.405,0l0,6.417zm42.351,12.48c0,5.9 -1.689,10.746 -5.058,14.535c-3.526,3.901 -8.217,5.846 -14.064,5.846c-5.643,0 -10.13,-1.869 -13.475,-5.602c-3.346,-3.74 -5.019,-8.454 -5.019,-14.14c0,-5.95 1.729,-10.823 5.175,-14.612c3.454,-3.793 8.104,-5.69 13.951,-5.69c5.635,0 10.162,1.873 13.588,5.61c3.273,3.625 4.902,8.307 4.902,14.052l0,0.001zm-8.844,0.195c0,-3.517 -0.76,-6.533 -2.286,-9.058c-1.789,-3.049 -4.35,-4.573 -7.668,-4.573c-3.418,0 -6.04,1.524 -7.824,4.573c-1.529,2.525 -2.29,5.593 -2.29,9.218c0,3.521 0.761,6.546 2.29,9.063c1.845,3.049 4.418,4.573 7.752,4.573c3.262,0 5.82,-1.556 7.668,-4.65c1.57,-2.584 2.358,-5.62 2.358,-9.146zm36.591,-11.575a14.848,14.844 0 0 0 -2.69,-0.236c-3,0 -5.322,1.128 -6.955,3.401c-1.417,2 -2.13,4.53 -2.13,7.582l0,20.146l-8.532,0l0,-26.304a269.866,269.794 0 0 0 -0.248,-12.087l7.432,0l0.312,7.346l0.236,0c0.905,-2.525 2.322,-4.561 4.267,-6.086a10.318,10.315 0 0 1 6.167,-2.056c0.789,0 1.5,0.056 2.133,0.156l0.008,8.138zm38.16,9.879a20.01,20.006 0 0 1 -0.311,3.869l-25.598,0c0.096,3.793 1.337,6.698 3.714,8.698c2.157,1.785 4.947,2.681 8.372,2.681c3.79,0 7.248,-0.6 10.358,-1.812l1.337,5.917c-3.634,1.585 -7.925,2.373 -12.875,2.373c-5.955,0 -10.63,-1.753 -14.032,-5.25c-3.394,-3.5 -5.095,-8.206 -5.095,-14.1c0,-5.785 1.581,-10.606 4.747,-14.451c3.314,-4.106 7.792,-6.158 13.427,-6.158c5.535,0 9.725,2.052 12.571,6.158c2.253,3.252 3.386,7.286 3.386,12.075l-0.001,0zm-8.136,-2.213c0.06,-2.532 -0.5,-4.713 -1.656,-6.558c-1.477,-2.376 -3.75,-3.56 -6.796,-3.56c-2.79,0 -5.063,1.156 -6.792,3.476c-1.42,1.845 -2.265,4.062 -2.525,6.634l17.769,0.008zm-299.813,-48.845c-2.374,0 -4.427,-0.116 -6.136,-0.312l0,-25.743a46.45,46.437 0 0 1 7.224,-0.544c9.786,0 14.292,4.813 14.292,12.659c0,9.05 -5.323,13.94 -15.38,13.94zm1.432,-23.299c-1.32,0 -2.445,0.08 -3.377,0.273l0,19.569c0.504,0.08 1.472,0.116 2.833,0.116c6.412,0 10.062,-3.65 10.062,-10.483c0,-6.094 -3.302,-9.475 -9.518,-9.475zm27.992,23.495c-5.515,0 -9.09,-4.117 -9.09,-9.707c0,-5.825 3.65,-9.979 9.402,-9.979c5.435,0 9.089,3.922 9.089,9.671c0,5.898 -3.766,10.015 -9.401,10.015zm0.16,-16.62c-3.03,0 -4.971,2.832 -4.971,6.793c0,3.885 1.981,6.718 4.93,6.718s4.931,-3.029 4.931,-6.798c0,-3.84 -1.94,-6.714 -4.89,-6.714l0,0.001zm40.69,-2.677l-5.904,18.869l-3.846,0l-2.445,-8.194a62.154,62.137 0 0 1 -1.517,-6.094l-0.08,0c-0.308,2.056 -0.892,4.117 -1.513,6.094l-2.601,8.194l-3.886,0l-5.555,-18.87l4.31,0l2.137,8.971c0.505,2.137 0.929,4.153 1.281,6.058l0.08,0c0.308,-1.589 0.812,-3.573 1.553,-6.018l2.681,-9.006l3.418,0l2.566,8.814a73.86,73.86 0 0 1 1.516,6.214l0.112,0c0.273,-1.94 0.7,-4.001 1.281,-6.214l2.293,-8.814l4.119,-0.004zm21.731,18.869l-4.194,0l0,-10.835c0,-3.337 -1.28,-5.01 -3.806,-5.01c-2.485,0 -4.194,2.137 -4.194,4.622l0,11.223l-4.195,0l0,-13.477c0,-1.668 -0.04,-3.457 -0.156,-5.397l3.69,0l0.196,2.912l0.117,0c1.128,-2.016 3.417,-3.297 5.983,-3.297c3.962,0 6.563,3.03 6.563,7.959l-0.004,11.3zm11.567,0l-4.199,0l0,-27.528l4.199,0l0,27.528zm15.292,0.428c-5.511,0 -9.09,-4.117 -9.09,-9.707c0,-5.825 3.65,-9.979 9.398,-9.979c5.439,0 9.089,3.922 9.089,9.671c0.004,5.898 -3.766,10.015 -9.397,10.015zm0.156,-16.62c-3.03,0 -4.97,2.832 -4.97,6.793c0,3.885 1.984,6.718 4.926,6.718c2.953,0 4.93,-3.029 4.93,-6.798c0.005,-3.84 -1.933,-6.714 -4.886,-6.714l0,0.001zm25.778,16.192l-0.304,-2.173l-0.112,0c-1.281,1.749 -3.15,2.6 -5.52,2.6c-3.381,0 -5.783,-2.368 -5.783,-5.553c0,-4.657 4.039,-7.066 11.03,-7.066l0,-0.348c0,-2.484 -1.316,-3.729 -3.918,-3.729c-1.86,0 -3.494,0.468 -4.93,1.4l-0.853,-2.756c1.745,-1.088 3.922,-1.633 6.48,-1.633c4.93,0 7.42,2.601 7.42,7.807l0,6.95c0,1.904 0.084,3.38 0.272,4.505l-3.782,-0.004zm-0.577,-9.399c-4.658,0 -6.995,1.129 -6.995,3.805c0,1.98 1.204,2.949 2.877,2.949c2.133,0 4.118,-1.628 4.118,-3.841l0,-2.913zm24.454,9.399l-0.196,-3.03l-0.116,0c-1.205,2.29 -3.23,3.458 -6.06,3.458c-4.55,0 -7.92,-4.001 -7.92,-9.63c0,-5.902 3.494,-10.06 8.264,-10.06c2.526,0 4.315,0.853 5.323,2.565l0.084,0l0,-10.83l4.199,0l0,22.44c0,1.825 0.044,3.533 0.156,5.086l-3.734,0.001zm-0.62,-11.103c0,-2.641 -1.75,-4.894 -4.419,-4.894c-3.11,0 -5.01,2.757 -5.01,6.638c0,3.805 1.972,6.41 4.926,6.41c2.637,0 4.502,-2.293 4.502,-5.01l0.001,-3.144zm30.816,11.53c-5.511,0 -9.085,-4.116 -9.085,-9.706c0,-5.825 3.65,-9.979 9.397,-9.979c5.44,0 9.09,3.922 9.09,9.671c0.003,5.898 -3.763,10.015 -9.402,10.015l0,-0.001zm0.156,-16.62c-3.026,0 -4.967,2.833 -4.967,6.794c0,3.885 1.981,6.718 4.927,6.718c2.954,0 4.93,-3.029 4.93,-6.798c0.009,-3.84 -1.932,-6.714 -4.89,-6.714zm31.801,16.193l-4.198,0l0,-10.835c0,-3.337 -1.28,-5.01 -3.806,-5.01c-2.485,0 -4.19,2.137 -4.19,4.622l0,11.223l-4.199,0l0,-13.477c0,-1.668 -0.04,-3.457 -0.156,-5.397l3.69,0l0.196,2.912l0.116,0c1.125,-2.016 3.418,-3.3 5.98,-3.3c3.962,0 6.567,3.028 6.567,7.958l0,11.304zm28.22,-15.725l-4.615,0l0,9.163c0,2.333 0.808,3.497 2.441,3.497c0.74,0 1.361,-0.08 1.861,-0.196l0.116,3.185c-0.812,0.312 -1.9,0.468 -3.253,0.468c-3.306,0 -5.283,-1.825 -5.283,-6.602l0,-9.515l-2.754,0l0,-3.144l2.754,0l0,-3.458l4.118,-1.245l0,4.698l4.614,0l0.001,3.149zm22.203,15.725l-4.19,0l0,-10.755c0,-3.377 -1.277,-5.086 -3.806,-5.086c-2.173,0 -4.198,1.477 -4.198,4.466l0,11.375l-4.19,0l0,-27.528l4.19,0l0,11.335l0.084,0c1.32,-2.056 3.234,-3.069 5.675,-3.069c3.994,0 6.435,3.105 6.435,8.039l0,11.223zm22.749,-8.427l-12.587,0c0.08,3.573 2.445,5.59 5.947,5.59c1.861,0 3.574,-0.312 5.087,-0.892l0.652,2.913c-1.785,0.776 -3.886,1.164 -6.331,1.164c-5.903,0 -9.397,-3.73 -9.397,-9.51c0,-5.786 3.578,-10.136 8.925,-10.136c4.822,0 7.848,3.573 7.848,8.97a8.084,8.082 0 0 1 -0.144,1.901zm-3.846,-2.988c0,-2.913 -1.47,-4.97 -4.15,-4.97c-2.41,0 -4.315,2.097 -4.587,4.97l8.737,0z"/>
  </g>
 </g>
</svg>